#!OML:ASF I:\Actors\actors\Patient Classification 2\Patient 1\Session 1\actor1.ASF
:FULLY-SPECIFIED
:DEGREES
346
root -0.67414 18.7004 5.48003 1.32078 -3.76925 -1.61993
lowerback 5.12077 2.90935 -0.697068
upperback 0.654732 3.84314 0.323524
thorax -2.2601 1.92268 0.452061
lowerneck -11.7962 -5.04329 -2.70073
upperneck 34.4058 -7.93231 3.34603
head 13.9184 -3.35277 0.605918
rclavicle 8.38623e-015 5.36719e-015
rhumerus -32.1167 28.6553 -100.96
rradius 87.1331
rwrist 36.4768
rhand -23.1527 -49.9824
rfingers 7.12502
rthumb 3.29563 -79.9367
lclavicle 8.38623e-015 5.36719e-015
lhumerus -31.1403 -22.0076 97.1845
lradius 88.7723
lwrist -4.19463
lhand -15.7509 -33.7132
lfingers 7.12502
lthumb 10.4404 -3.99242
rfemur 0 0 0
rtibia 0
rfoot 0 0
rtoes 0
lfemur -3.83318 -3.10304 -12.6784
ltibia 21.6646
lfoot -23.3765 16.8649
ltoes -55.2398
347
root -0.674468 18.699 5.4795 1.28133 -3.69369 -1.59717
lowerback 5.11725 2.9234 -0.764845
upperback 0.650671 3.85791 0.315162
thorax -2.26643 1.93063 0.48013
lowerneck -11.6557 -5.47175 -3.44575
upperneck 34.5244 -8.52688 3.74676
head 14.0329 -3.65415 0.802748
rclavicle 3.19546e-014 -6.4605e-015
rhumerus -31.8763 28.4966 -100.459
rradius 86.7004
rwrist 37.3025
rhand -20.0535 -49.9241
rfingers 7.12502
rthumb 6.2882 -79.8108
lclavicle 3.19546e-014 -6.4605e-015
lhumerus -31.1362 -23.1028 98.264
lradius 89.4513
lwrist -3.70984
lhand -16.6735 -33.1222
lfingers 7.12502
lthumb 9.55041 -3.35861
rfemur 0 0 0
rtibia 0
rfoot 0 0
rtoes 0
lfemur -3.81647 -3.0788 -12.6964
ltibia 21.6604
lfoot -23.2825 16.8428
ltoes -55.3345
348
root -0.67297 18.6989 5.48048 1.28886 -3.61427 -1.56507
lowerback 5.03956 2.90368 -0.767731
upperback 0.644272 3.83109 0.270618
thorax -2.22631 1.91714 0.442178
lowerneck -11.4174 -5.85067 -4.04652
upperneck 34.4905 -9.02215 3.98169
head 14.0412 -3.92155 0.927002
rclavicle -1.16786e-015 2.98177e-015
rhumerus -31.8068 28.8099 -100.122
rradius 86.4346
rwrist 37.1773
rhand -18.0143 -49.5409
rfingers 7.12502
rthumb 8.25653 -79.3596
lclavicle -1.16786e-015 2.98177e-015
lhumerus -31.0313 -24.0369 99.2532
lradius 89.9186
lwrist -3.20468
lhand -17.6448 -32.8673
lfingers 7.12502
lthumb 8.6131 -3.06296
rfemur 0 0 0
rtibia 0
rfoot 0 0
rtoes 0
lfemur -3.85238 -3.05004 -12.7272
ltibia 21.6719
lfoot -23.2128 16.7742
ltoes -55.34
349
root -0.672122 18.6997 5.48062 1.28666 -3.47147 -1.5427
lowerback 5.00478 2.8659 -0.749995
upperback 0.629601 3.78085 0.220172
thorax -2.21663 1.89182 0.385698
lowerneck -11.1088 -6.22869 -4.5226
upperneck 34.3296 -9.48085 4.0391
head 13.96 -4.18457 0.967265
rclavicle -3.8676e-014 -9.93923e-015
rhumerus -31.86 29.4629 -99.7561
rradius 86.4302
rwrist 36.2891
rhand -16.4181 -49.1253
rfingers 7.12502
rthumb 9.79676 -78.8774
lclavicle -3.8676e-014 -9.93923e-015
lhumerus -30.6491 -25.1633 100.12
lradius 89.7598
lwrist -2.64455
lhand -18.8862 -33.0972
lfingers 7.12502
lthumb 7.41502 -3.2471
rfemur 0 0 0
rtibia 0
rfoot 0 0
rtoes 0
lfemur -3.91341 -3.06699 -12.7436
ltibia 21.7273
lfoot -23.1863 16.6462
ltoes -55.3465
350
root -0.672944 18.6981 5.47528 1.14243 -3.28174 -1.5421
lowerback 5.21904 2.82928 -0.699683
upperback 0.623458 3.73143 0.153268
thorax -2.33428 1.86642 0.280994
lowerneck -10.8246 -6.64286 -5.09812
upperneck 34.27 -10.0479 4.29059
head 13.9614 -4.47957 1.08286
rclavicle -4.84165e-014 5.56597e-015
rhumerus -31.9382 30.2915 -99.2143
rradius 86.7161
rwrist 34.6755
rhand -14.5973 -48.7587
rfingers 7.12502
rthumb 11.5531 -78.4202
lclavicle -4.84165e-014 5.56597e-015
lhumerus -30.2887 -26.4155 100.899
lradius 89.4495
lwrist -2.1991
lhand -20.2487 -33.3952
lfingers 7.12502
lthumb 6.09973 -3.50303
rfemur 0 0 0
rtibia 0
rfoot 0 0
rtoes 0
lfemur -3.88779 -3.01616 -12.7166
ltibia 21.8498
lfoot -23.0901 16.4445
ltoes -55.3851
351
root -0.66335 18.6987 5.46311 1.12628 -3.17345 -1.57018
lowerback 5.41305 2.78996 -0.486813
upperback 0.556005 3.68773 0.0621415
thorax -2.49213 1.84218 0.0600287
lowerneck -10.5282 -7.03603 -5.70556
upperneck 34.2387 -10.6025 4.59505
head 13.9849 -4.76661 1.22649
rclavicle 3.9173e-014 -9.14409e-015
rhumerus -32.1967 31.4984 -98.596
rradius 87.3423
rwrist 31.6216
rhand -13.9657 -48.5481
rfingers 7.12502
rthumb 12.1622 -78.1745
lclavicle 3.9173e-014 -9.14409e-015
lhumerus -30.1285 -27.5636 101.662
lradius 89.2848
lwrist -1.91656
lhand -21.19 -33.3594
lfingers 7.12502
lthumb 5.1909 -3.44301
rfemur 0 0 0
rtibia 0
rfoot 0 0
rtoes 0
lfemur -4.01199 -3.17104 -12.7283
ltibia 21.9742
lfoot -23.1216 16.4864
ltoes -55.2981
